<svg id="Layer_1" data-name="Layer 1" xmlns="http://www.w3.org/2000/svg" viewBox="0 0 128 128"><title>WINE GLASS</title><path d="M88.72,63.68C83.36,67.78,75.38,72.01,64,74c-11.38-1.99-19.36-6.22-24.72-10.32-5.9-4.52-8.44-13.32-6.08-21.24l3.4-11.42L43,9.5H85l7.68,25.83h.01l2.11,7.11C97.16,50.36,94.62,59.16,88.72,63.68Z" style="fill:#feded6"/><path d="M77.625,118.5,65.75,111.092V74a1.75,1.75,0,0,0-3.5,0v37.092L50.375,118.5Z" style="fill:#f6c6bb"/><path d="M88.72,63.68C83.36,67.78,75.38,72.01,64,74c-11.38-1.99-19.36-6.22-24.72-10.32-5.9-4.52-8.44-13.32-6.08-21.24l3.4-11.42c6.71,5.29,16.91,10,29.9,5.98,10.06-3.11,18.95-3.28,26.18-1.67h.01l2.11,7.11C97.16,50.36,94.62,59.16,88.72,63.68Z" style="fill:#672d53"/><path d="M83.1,60.443A1.75,1.75,0,0,1,82.035,57.3c3.968-3.04,5.686-9.147,4.084-14.522a1.75,1.75,0,0,1,3.355-1c2.032,6.821-.151,14.346-5.31,18.3A1.744,1.744,0,0,1,83.1,60.443Z" style="fill:#feded6"/><path d="M58.333,9.5H43L36.6,31.02,33.2,42.44c-2.36,7.92.18,16.72,6.08,21.24C44.64,67.78,52.62,72.01,64,74,34,67.667,58.333,9.5,58.333,9.5Z" style="fill:#f6c6bb"/><path d="M50.183,37.73A34.721,34.721,0,0,1,36.6,31.02L33.2,42.44c-2.36,7.92.18,16.72,6.08,21.24C44.64,67.78,52.62,72.01,64,74,48.462,70.72,47.5,53.536,50.183,37.73Z" style="fill:#532b47"/></svg>